<?xml version="1.0" encoding="UTF-8" standalone="no"?>
<!DOCTYPE svg PUBLIC "-//W3C//DTD SVG 1.1//EN" "http://www.w3.org/Graphics/SVG/1.1/DTD/svg11.dtd">
<svg xmlns="http://www.w3.org/2000/svg" viewBox="0 0 519 175">
<style>
    svg {
        font-family: SFMono-Regular,Consolas,Liberation Mono,Menlo,monospace;
        font-kerning: normal;
        text-rendering: optimizeLegibility;
    }
    rect {
        fill: rgb(246, 248, 250);
    }
    rect.hold {
        fill: rgb(255, 205, 178);
    }
    text {
        font-size: 0.75em;
        stroke: none;
        fill: rgb(50,50,50);
    }
    .tl {
        text-anchor: start;
        dominant-baseline:hanging;
    }
    .tr {
        text-anchor: end;
        dominant-baseline:hanging;
    }
    .bl {
        text-anchor: start;
    }
    .br {
        text-anchor: end;
    }
    .cnt {
        text-anchor: middle;
        dominant-baseline:middle;
    }
    .layer {
        fill: rgb(190, 190, 190);
        font-size: 0.5em;
    }    
</style>
<rect rx="4" x="3" y="3" width="40" height="40" class=""/>
<text x="23" y="23" class="cnt">z</text>
<text x="39" y="39" class="layer br">w</text>
<rect rx="4" x="46" y="3" width="40" height="40" class=""/>
<text x="66" y="23" class="cnt">z</text>
<text x="82" y="39" class="layer br">r</text>
<rect rx="4" x="89" y="3" width="40" height="40" class=""/>
<text x="109" y="23" class="cnt">e</text>
<text x="125" y="39" class="layer br">r</text>
<rect rx="4" x="132" y="3" width="40" height="40" class=""/>
<text x="152" y="23" class="cnt">j</text>
<text x="168" y="39" class="layer br">v</text>
<rect rx="4" x="175" y="3" width="40" height="40" class=""/>
<text x="195" y="23" class="cnt">g</text>
<text x="211" y="39" class="layer br">w</text>
<rect rx="4" x="218" y="3" width="40" height="40" class=""/>
<text x="238" y="23" class="cnt">n</text>
<text x="254" y="39" class="layer br">k</text>
<rect rx="4" x="261" y="3" width="40" height="40" class=""/>
<text x="281" y="23" class="cnt">r</text>
<text x="297" y="39" class="layer br">r</text>
<rect rx="4" x="304" y="3" width="40" height="40" class=""/>
<text x="324" y="23" class="cnt">d</text>
<text x="340" y="39" class="layer br">f</text>
<rect rx="4" x="347" y="3" width="40" height="40" class=""/>
<text x="367" y="23" class="cnt">j</text>
<text x="383" y="39" class="layer br">y</text>
<rect rx="4" x="390" y="3" width="40" height="40" class=""/>
<text x="410" y="23" class="cnt">t</text>
<text x="426" y="39" class="layer br">t</text>
<rect rx="4" x="433" y="3" width="40" height="40" class=""/>
<text x="453" y="23" class="cnt">s</text>
<text x="469" y="39" class="layer br">c</text>
<rect rx="4" x="476" y="3" width="40" height="40" class=""/>
<text x="496" y="23" class="cnt">u</text>
<text x="512" y="39" class="layer br">r</text>



<rect rx="4" x="3" y="46" width="40" height="40" class=""/>
<text x="23" y="66" class="cnt">y</text>
<text x="39" y="82" class="layer br">m</text>
<rect rx="4" x="46" y="46" width="40" height="40" class=""/>
<text x="66" y="66" class="cnt">q</text>
<text x="82" y="82" class="layer br">s</text>
<rect rx="4" x="89" y="46" width="40" height="40" class=""/>
<text x="109" y="66" class="cnt">h</text>
<text x="125" y="82" class="layer br">a</text>
<rect rx="4" x="132" y="46" width="40" height="40" class=""/>
<text x="152" y="66" class="cnt">v</text>
<text x="168" y="82" class="layer br">a</text>
<rect rx="4" x="175" y="46" width="40" height="40" class=""/>
<text x="195" y="66" class="cnt">r</text>
<text x="211" y="82" class="layer br">o</text>
<rect rx="4" x="218" y="46" width="40" height="40" class=""/>
<text x="238" y="66" class="cnt">b</text>
<text x="254" y="82" class="layer br">o</text>
<rect rx="4" x="261" y="46" width="40" height="40" class=""/>
<text x="281" y="66" class="cnt">t</text>
<text x="297" y="82" class="layer br">v</text>
<rect rx="4" x="304" y="46" width="40" height="40" class=""/>
<text x="324" y="66" class="cnt">b</text>
<text x="340" y="82" class="layer br">f</text>
<rect rx="4" x="347" y="46" width="40" height="40" class=""/>
<text x="367" y="66" class="cnt">e</text>
<text x="383" y="82" class="layer br">u</text>
<rect rx="4" x="390" y="46" width="40" height="40" class=""/>
<text x="410" y="66" class="cnt">o</text>
<text x="426" y="82" class="layer br">z</text>
<rect rx="4" x="433" y="46" width="40" height="40" class=""/>
<text x="453" y="66" class="cnt">u</text>
<text x="469" y="82" class="layer br">z</text>
<rect rx="4" x="476" y="46" width="40" height="40" class=""/>
<text x="496" y="66" class="cnt">j</text>
<text x="512" y="82" class="layer br">a</text>



<rect rx="4" x="3" y="89" width="40" height="40" class=""/>
<text x="23" y="109" class="cnt">k</text>
<text x="39" y="125" class="layer br">p</text>
<rect rx="4" x="46" y="89" width="40" height="40" class=""/>
<text x="66" y="109" class="cnt">y</text>
<text x="82" y="125" class="layer br">d</text>
<rect rx="4" x="89" y="89" width="40" height="40" class=""/>
<text x="109" y="109" class="cnt">y</text>
<text x="125" y="125" class="layer br">a</text>
<rect rx="4" x="132" y="89" width="40" height="40" class=""/>
<text x="152" y="109" class="cnt">d</text>
<text x="168" y="125" class="layer br">s</text>
<rect rx="4" x="175" y="89" width="40" height="40" class=""/>
<text x="195" y="109" class="cnt">l</text>
<text x="211" y="125" class="layer br">i</text>
<rect rx="4" x="218" y="89" width="40" height="40" class=""/>
<text x="238" y="109" class="cnt">q</text>
<text x="254" y="125" class="layer br">d</text>
<rect rx="4" x="261" y="89" width="40" height="40" class=""/>
<text x="281" y="109" class="cnt">w</text>
<text x="297" y="125" class="layer br">s</text>
<rect rx="4" x="304" y="89" width="40" height="40" class=""/>
<text x="324" y="109" class="cnt">q</text>
<text x="340" y="125" class="layer br">k</text>
<rect rx="4" x="347" y="89" width="40" height="40" class=""/>
<text x="367" y="109" class="cnt">r</text>
<text x="383" y="125" class="layer br">s</text>
<rect rx="4" x="390" y="89" width="40" height="40" class=""/>
<text x="410" y="109" class="cnt">g</text>
<text x="426" y="125" class="layer br">c</text>
<rect rx="4" x="433" y="89" width="40" height="40" class=""/>
<text x="453" y="109" class="cnt">x</text>
<text x="469" y="125" class="layer br">b</text>
<rect rx="4" x="476" y="89" width="40" height="40" class=""/>
<text x="496" y="109" class="cnt">d</text>
<text x="512" y="125" class="layer br">g</text>



<rect rx="4" x="3" y="132" width="40" height="40" class=""/>
<text x="23" y="152" class="cnt">l</text>
<text x="39" y="168" class="layer br">v</text>
<rect rx="4" x="46" y="132" width="40" height="40" class=""/>
<text x="66" y="152" class="cnt">a</text>
<text x="82" y="168" class="layer br">w</text>
<rect rx="4" x="89" y="132" width="40" height="40" class=""/>
<text x="109" y="152" class="cnt">d</text>
<text x="125" y="168" class="layer br">q</text>
<rect rx="4" x="132" y="132" width="40" height="40" class=""/>
<text x="152" y="152" class="cnt">m</text>
<text x="168" y="168" class="layer br">g</text>
<rect rx="4" x="175" y="132" width="40" height="40" class=""/>
<text x="195" y="152" class="cnt">k</text>
<text x="211" y="168" class="layer br">j</text>
<rect rx="4" x="218" y="132" width="83" height="40" class=""/>
<text x="259.5" y="152" class="cnt">h</text>
<text x="297" y="168" class="layer br">w</text>
<rect rx="4" x="304" y="132" width="40" height="40" class=""/>
<text x="324" y="152" class="cnt">u</text>
<text x="340" y="168" class="layer br">s</text>
<rect rx="4" x="347" y="132" width="40" height="40" class=""/>
<text x="367" y="152" class="cnt">j</text>
<text x="383" y="168" class="layer br">v</text>
<rect rx="4" x="390" y="132" width="40" height="40" class=""/>
<text x="410" y="152" class="cnt">z</text>
<text x="426" y="168" class="layer br">z</text>
<rect rx="4" x="433" y="132" width="40" height="40" class=""/>
<text x="453" y="152" class="cnt">x</text>
<text x="469" y="168" class="layer br">g</text>
<rect rx="4" x="476" y="132" width="40" height="40" class=""/>
<text x="496" y="152" class="cnt">e</text>
<text x="512" y="168" class="layer br">k</text>
</svg>
