<svg xmlns="http://www.w3.org/2000/svg" viewBox="0 0 558 190">
<style>
    svg { fill: none; stroke: rgb(211, 211, 211);font-size:0.5rem; font-weight: 300;}
   
    .tl { font-size: 1.0em; fill: rgb(211, 211, 211);text-anchor: start;dominant-baseline:hanging;}
    .tr { font-size: 1.0em; fill: rgb(251, 133, 0);text-anchor: end;dominant-baseline:hanging;}
    
    .bl { font-size: 1.0em; fill: rgb(72, 149, 239);text-anchor: start;}
    .br { font-size: 1.0em; fill: rgb(87, 204, 153);text-anchor: end;}
    .cnt { font-size: 1.0em; fill: rgb(22, 26, 29);text-anchor: middle;dominant-baseline:middle;}
    
    text {font-family: Courier New,"Helvetica Neue";stroke: none}
    rect {stroke-width: 0.5;}

    rect.lw { fill: rgb(72, 149, 239); stroke: rgb(72, 149, 239)}
    text.lw { fill: rgb(250, 250, 250)}
    rect.rs { fill: rgb(251, 133, 0); stroke: rgb(251, 133, 0)}
    text.rs { fill: rgb(250, 250, 250);}
    rect.fn { fill: rgb(87, 204, 153);}
    text.fn { fill: rgb(250, 250, 250);}
     
  </style>

# Row: 1
<rect rx="3" x="6" y="6" width="40" height="40"/>
<rect rx="3" x="52" y="6" width="40" height="40"/>
<rect rx="3" x="98" y="6" width="40" height="40"/>
<rect rx="3" x="144" y="6" width="40" height="40"/>
<rect rx="3" x="190" y="6" width="40" height="40"/>
<rect rx="3" x="236" y="6" width="40" height="40"/>
<rect rx="3" x="282" y="6" width="40" height="40"/>
<rect rx="3" x="328" y="6" width="40" height="40"/>
<rect rx="3" x="374" y="6" width="40" height="40"/>
<rect rx="3" x="420" y="6" width="40" height="40"/>
<rect rx="3" x="466" y="6" width="40" height="40"/>
<rect rx="3" x="512" y="6" width="40" height="40"/>

# Row: 2
<rect rx="3" x="6" y="52" width="40" height="40"/>
<rect rx="3" x="52" y="52" width="40" height="40"/>
<rect rx="3" x="98" y="52" width="40" height="40"/>
<rect rx="3" x="144" y="52" width="40" height="40"/>
<rect rx="3" x="190" y="52" width="40" height="40"/>
<rect rx="3" x="236" y="52" width="40" height="40"/>
<rect rx="3" x="282" y="52" width="40" height="40"/>
<rect rx="3" x="328" y="52" width="40" height="40"/>
<rect rx="3" x="374" y="52" width="40" height="40"/>
<rect rx="3" x="420" y="52" width="40" height="40"/>
<rect rx="3" x="466" y="52" width="40" height="40"/>
<rect rx="3" x="512" y="52" width="40" height="40"/>

# Row: 3
<rect rx="3" x="6" y="98" width="40" height="40"/>
<rect rx="3" x="52" y="98" width="40" height="40"/>
<rect rx="3" x="98" y="98" width="40" height="40"/>
<rect rx="3" x="144" y="98" width="40" height="40"/>
<rect rx="3" x="190" y="98" width="40" height="40"/>
<rect rx="3" x="236" y="98" width="40" height="40"/>
<rect rx="3" x="282" y="98" width="40" height="40"/>
<rect rx="3" x="328" y="98" width="40" height="40"/>
<rect rx="3" x="374" y="98" width="40" height="40"/>
<rect rx="3" x="420" y="98" width="40" height="40"/>
<rect rx="3" x="466" y="98" width="40" height="40"/>
<rect rx="3" x="512" y="98" width="40" height="40"/>

# Row: 4
<rect rx="3" x="6" y="144" width="40" height="40" class="fn"/>
<rect rx="3" x="52" y="144" width="40" height="40"/>
<rect rx="3" x="98" y="144" width="40" height="40"/>
<rect rx="3" x="144" y="144" width="40" height="40"/>
<rect rx="3" x="190" y="144" width="40" height="40" class="lw"/>
<rect rx="3" x="236" y="144" width="86" height="40"/>
<rect rx="3" x="328" y="144" width="40" height="40" class="rs"/>
<rect rx="3" x="374" y="144" width="40" height="40"/>
<rect rx="3" x="420" y="144" width="40" height="40"/>
<rect rx="3" x="466" y="144" width="40" height="40"/>
<rect rx="3" x="512" y="144" width="40" height="40"/>

# Row: 1 - Center layer
<text x="26" y="26" class="cnt r1 c1">Tab</text>
<text x="72" y="26" class="cnt r1 c2">Q</text>
<text x="118" y="26" class="cnt r1 c3">W</text>
<text x="164" y="26" class="cnt r1 c4">E</text>
<text x="210" y="26" class="cnt r1 c5">R</text>
<text x="256" y="26" class="cnt r1 c6">T</text>
<text x="302" y="26" class="cnt r1 c7">Y</text>
<text x="348" y="26" class="cnt r1 c8">U</text>
<text x="394" y="26" class="cnt r1 c9">I</text>
<text x="440" y="26" class="cnt r1 c10">O</text>
<text x="486" y="26" class="cnt r1 c11">P</text>
<text x="532" y="26" class="cnt r1 c12">Backsp</text>

# Row: 2 - Center layer
<text x="26" y="72" class="cnt r2 c1">Esc</text>
<text x="72" y="72" class="cnt r2 c2">A</text>
<text x="118" y="72" class="cnt r2 c3">S</text>
<text x="164" y="72" class="cnt r2 c4">D</text>
<text x="210" y="72" class="cnt r2 c5">F</text>
<text x="256" y="72" class="cnt r2 c6">G</text>
<text x="302" y="72" class="cnt r2 c7">H</text>
<text x="348" y="72" class="cnt r2 c8">J</text>
<text x="394" y="72" class="cnt r2 c9">K</text>
<text x="440" y="72" class="cnt r2 c10">L</text>
<text x="486" y="72" class="cnt r2 c11">;</text>
<text x="532" y="72" class="cnt r2 c12">'</text>

# Row: 3 - Center layer
<text x="26" y="118" class="cnt r3 c1">Shift</text>
<text x="72" y="118" class="cnt r3 c2">Z</text>
<text x="118" y="118" class="cnt r3 c3">X</text>
<text x="164" y="118" class="cnt r3 c4">C</text>
<text x="210" y="118" class="cnt r3 c5">V</text>
<text x="256" y="118" class="cnt r3 c6">B</text>
<text x="302" y="118" class="cnt r3 c7">N</text>
<text x="348" y="118" class="cnt r3 c8">M</text>
<text x="394" y="118" class="cnt r3 c9">,</text>
<text x="440" y="118" class="cnt r3 c10">.</text>
<text x="486" y="118" class="cnt r3 c11">/</text>
<text x="532" y="118" class="cnt r3 c12">Enter</text>

# Row: 4 - Center layer
<text x="26" y="164" class="cnt r4 c1 fn">Fn</text>
<text x="72" y="164" class="cnt r4 c2">Ctrl</text>
<text x="118" y="164" class="cnt r4 c3">Alt</text>
<text x="164" y="164" class="cnt r4 c4">Opt</text>
<text x="210" y="164" class="cnt r4 c5 lw">lower</text>
<text x="279" y="164" class="cnt r4 c6"></text>
<text x="348" y="164" class="cnt r4 c8 rs">raise</text>
<text x="394" y="164" class="cnt r4 c9">left</text>
<text x="440" y="164" class="cnt r4 c10">down</text>
<text x="486" y="164" class="cnt r4 c11">up</text>
<text x="532" y="164" class="cnt r4 c12">right</text>

# Row: 1 - Top right layer
<text x="42" y="10" class="tr r1 c1">`</text>
<text x="88" y="10" class="tr r1 c2">1</text>
<text x="134" y="10" class="tr r1 c3">2</text>
<text x="180" y="10" class="tr r1 c4">3</text>
<text x="226" y="10" class="tr r1 c5">4</text>
<text x="272" y="10" class="tr r1 c6">5</text>
<text x="318" y="10" class="tr r1 c7">6</text>
<text x="364" y="10" class="tr r1 c8">7</text>
<text x="410" y="10" class="tr r1 c9">8</text>
<text x="456" y="10" class="tr r1 c10">9</text>
<text x="502" y="10" class="tr r1 c11">0</text>
<text x="548" y="10" class="tr r1 c12"></text>

# Row: 2 - Top right layer
<text x="42" y="56" class="tr r2 c1"></text>
<text x="88" y="56" class="tr r2 c2"></text>
<text x="134" y="56" class="tr r2 c3"></text>
<text x="180" y="56" class="tr r2 c4"></text>
<text x="226" y="56" class="tr r2 c5"></text>
<text x="272" y="56" class="tr r2 c6"></text>
<text x="318" y="56" class="tr r2 c7"></text>
<text x="364" y="56" class="tr r2 c8"></text>
<text x="410" y="56" class="tr r2 c9"></text>
<text x="456" y="56" class="tr r2 c10"></text>
<text x="502" y="56" class="tr r2 c11"></text>
<text x="548" y="56" class="tr r2 c12">¨</text>

# Row: 3 - Top right layer
<text x="42" y="102" class="tr r3 c1"></text>
<text x="88" y="102" class="tr r3 c2"></text>
<text x="134" y="102" class="tr r3 c3"></text>
<text x="180" y="102" class="tr r3 c4"></text>
<text x="226" y="102" class="tr r3 c5"></text>
<text x="272" y="102" class="tr r3 c6"></text>
<text x="318" y="102" class="tr r3 c7"></text>
<text x="364" y="102" class="tr r3 c8"></text>
<text x="410" y="102" class="tr r3 c9"></text>
<text x="456" y="102" class="tr r3 c10"></text>
<text x="502" y="102" class="tr r3 c11"></text>
<text x="548" y="102" class="tr r3 c12"></text>

# Row: 4 - Top right layer
<text x="42" y="148" class="tr r4 c1"></text>
<text x="88" y="148" class="tr r4 c2"></text>
<text x="134" y="148" class="tr r4 c3"></text>
<text x="180" y="148" class="tr r4 c4"></text>
<text x="226" y="148" class="tr r4 c5"></text>
<text x="318" y="148" class="tr r4 c6"></text>
<text x="364" y="148" class="tr r4 c8"></text>
<text x="410" y="148" class="tr r4 c9">next</text>
<text x="456" y="148" class="tr r4 c10">vol-</text>
<text x="502" y="148" class="tr r4 c11">vol+</text>
<text x="548" y="148" class="tr r4 c12">play</text>

# Row: 1 - Bottom left layer
<text x="10" y="42" class="bl r1 c1">~</text>
<text x="56" y="42" class="bl r1 c2">!</text>
<text x="102" y="42" class="bl r1 c3">@</text>
<text x="148" y="42" class="bl r1 c4">#</text>
<text x="194" y="42" class="bl r1 c5">$</text>
<text x="240" y="42" class="bl r1 c6">%</text>
<text x="286" y="42" class="bl r1 c7">^</text>
<text x="332" y="42" class="bl r1 c8">&amp;</text>
<text x="378" y="42" class="bl r1 c9">*</text>
<text x="424" y="42" class="bl r1 c10">(</text>
<text x="470" y="42" class="bl r1 c11">)</text>
<text x="516" y="42" class="bl r1 c12"></text>

# Row: 2 - Bottom left layer
<text x="10" y="88" class="bl r2 c1"></text>
<text x="56" y="88" class="bl r2 c2"></text>
<text x="102" y="88" class="bl r2 c3"></text>
<text x="148" y="88" class="bl r2 c4"></text>
<text x="194" y="88" class="bl r2 c5"></text>
<text x="240" y="88" class="bl r2 c6"></text>
<text x="286" y="88" class="bl r2 c7"></text>
<text x="332" y="88" class="bl r2 c8">_</text>
<text x="378" y="88" class="bl r2 c9">+</text>
<text x="424" y="88" class="bl r2 c10">{</text>
<text x="470" y="88" class="bl r2 c11">}</text>
<text x="516" y="88" class="bl r2 c12">´</text>

# Row: 3 - Bottom left layer
<text x="10" y="134" class="bl r3 c1"></text>
<text x="56" y="134" class="bl r3 c2"></text>
<text x="102" y="134" class="bl r3 c3"></text>
<text x="148" y="134" class="bl r3 c4"></text>
<text x="194" y="134" class="bl r3 c5"></text>
<text x="240" y="134" class="bl r3 c6">\</text>
<text x="286" y="134" class="bl r3 c7">|</text>
<text x="332" y="134" class="bl r3 c8">-</text>
<text x="378" y="134" class="bl r3 c9">=</text>
<text x="424" y="134" class="bl r3 c10">[</text>
<text x="470" y="134" class="bl r3 c11">]</text>
<text x="516" y="134" class="bl r3 c12"></text>

# Row: 4 - Bottom left layer
<text x="10" y="180" class="bl r4 c1"></text>
<text x="56" y="180" class="bl r4 c2"></text>
<text x="102" y="180" class="bl r4 c3"></text>
<text x="148" y="180" class="bl r4 c4"></text>
<text x="194" y="180" class="bl r4 c5"></text>
<text x="240" y="180" class="bl r4 c6"></text>
<text x="332" y="180" class="bl r4 c8"></text>
<text x="378" y="180" class="bl r4 c9"></text>
<text x="424" y="180" class="bl r4 c10"></text>
<text x="470" y="180" class="bl r4 c11"></text>
<text x="516" y="180" class="bl r4 c12"></text>

# Row: 1 - Bottom right layer
<text x="42" y="42" class="br r1 c1"></text>
<text x="88" y="42" class="br r1 c2">F1</text>
<text x="134" y="42" class="br r1 c3">F2</text>
<text x="180" y="42" class="br r1 c4">F3</text>
<text x="226" y="42" class="br r1 c5">F4</text>
<text x="272" y="42" class="br r1 c6"></text>
<text x="318" y="42" class="br r1 c7"></text>
<text x="364" y="42" class="br r1 c8"></text>
<text x="410" y="42" class="br r1 c9">Ins</text>
<text x="456" y="42" class="br r1 c10"></text>
<text x="502" y="42" class="br r1 c11">PrtSc</text>
<text x="548" y="42" class="br r1 c12">Å</text>

# Row: 2 - Bottom right layer
<text x="42" y="88" class="br r2 c1">Del</text>
<text x="88" y="88" class="br r2 c2">F5</text>
<text x="134" y="88" class="br r2 c3">F6</text>
<text x="180" y="88" class="br r2 c4">F7</text>
<text x="226" y="88" class="br r2 c5">F8</text>
<text x="272" y="88" class="br r2 c6"></text>
<text x="318" y="88" class="br r2 c7"></text>
<text x="364" y="88" class="br r2 c8"></text>
<text x="410" y="88" class="br r2 c9"></text>
<text x="456" y="88" class="br r2 c10"></text>
<text x="502" y="88" class="br r2 c11">Æ</text>
<text x="548" y="88" class="br r2 c12">Ø</text>

# Row: 3 - Bottom right layer
<text x="42" y="134" class="br r3 c1"></text>
<text x="88" y="134" class="br r3 c2">F9</text>
<text x="134" y="134" class="br r3 c3">F10</text>
<text x="180" y="134" class="br r3 c4">F11</text>
<text x="226" y="134" class="br r3 c5">F12</text>
<text x="272" y="134" class="br r3 c6"></text>
<text x="318" y="134" class="br r3 c7"></text>
<text x="364" y="134" class="br r3 c8"></text>
<text x="410" y="134" class="br r3 c9"></text>
<text x="456" y="134" class="br r3 c10"></text>
<text x="502" y="134" class="br r3 c11"></text>
<text x="548" y="134" class="br r3 c12">Del</text>

# Row: 4 - Bottom right layer
<text x="42" y="180" class="br r4 c1"></text>
<text x="88" y="180" class="br r4 c2"></text>
<text x="134" y="180" class="br r4 c3"></text>
<text x="180" y="180" class="br r4 c4"></text>
<text x="226" y="180" class="br r4 c5"></text>
<text x="318" y="180" class="br r4 c6"></text>
<text x="364" y="180" class="br r4 c8"></text>
<text x="410" y="180" class="br r4 c9">home</text>
<text x="456" y="180" class="br r4 c10">PgDn</text>
<text x="502" y="180" class="br r4 c11">PgUp</text>
<text x="548" y="180" class="br r4 c12">end</text>

# Row: 1 - Top left layer
<text x="10" y="10" class="tl r1 c1"></text>
<text x="56" y="10" class="tl r1 c2"></text>
<text x="102" y="10" class="tl r1 c3">wntg</text>
<text x="148" y="10" class="tl r1 c4"></text>
<text x="194" y="10" class="tl r1 c5">rset</text>
<text x="240" y="10" class="tl r1 c6"></text>
<text x="286" y="10" class="tl r1 c7"></text>
<text x="332" y="10" class="tl r1 c8"></text>
<text x="378" y="10" class="tl r1 c9"></text>
<text x="424" y="10" class="tl r1 c10"></text>
<text x="470" y="10" class="tl r1 c11"></text>
<text x="516" y="10" class="tl r1 c12"></text>

# Row: 2 - Top left layer
<text x="10" y="56" class="tl r2 c1"></text>
<text x="56" y="56" class="tl r2 c2"></text>
<text x="102" y="56" class="tl r2 c3"></text>
<text x="148" y="56" class="tl r2 c4"></text>
<text x="194" y="56" class="tl r2 c5"></text>
<text x="240" y="56" class="tl r2 c6"></text>
<text x="286" y="56" class="tl r2 c7"></text>
<text x="332" y="56" class="tl r2 c8"></text>
<text x="378" y="56" class="tl r2 c9"></text>
<text x="424" y="56" class="tl r2 c10">rgbtg</text>
<text x="470" y="56" class="tl r2 c11"></text>
<text x="516" y="56" class="tl r2 c12"></text>

# Row: 3 - Top left layer
<text x="10" y="102" class="tl r3 c1"></text>
<text x="56" y="102" class="tl r3 c2"></text>
<text x="102" y="102" class="tl r3 c3"></text>
<text x="148" y="102" class="tl r3 c4"></text>
<text x="194" y="102" class="tl r3 c5"></text>
<text x="240" y="102" class="tl r3 c6"></text>
<text x="286" y="102" class="tl r3 c7"></text>
<text x="332" y="102" class="tl r3 c8">mactg</text>
<text x="378" y="102" class="tl r3 c9"></text>
<text x="424" y="102" class="tl r3 c10"></text>
<text x="470" y="102" class="tl r3 c11"></text>
<text x="516" y="102" class="tl r3 c12"></text>

# Row: 4 - Top left layer
<text x="10" y="148" class="tl r4 c1"></text>
<text x="56" y="148" class="tl r4 c2"></text>
<text x="102" y="148" class="tl r4 c3"></text>
<text x="148" y="148" class="tl r4 c4"></text>
<text x="194" y="148" class="tl r4 c5"></text>
<text x="240" y="148" class="tl r4 c6"></text>
<text x="332" y="148" class="tl r4 c8"></text>
<text x="378" y="148" class="tl r4 c9"></text>
<text x="424" y="148" class="tl r4 c10"></text>
<text x="470" y="148" class="tl r4 c11"></text>
<text x="516" y="148" class="tl r4 c12"></text>


</svg>
