<?xml version="1.0" encoding="UTF-8" standalone="no"?>
<!DOCTYPE svg PUBLIC "-//W3C//DTD SVG 1.1//EN" "http://www.w3.org/Graphics/SVG/1.1/DTD/svg11.dtd">
<svg xmlns="http://www.w3.org/2000/svg" viewBox="0 0 674 1460" width="674" height="1460">
<style>
    svg {
        font-family: SFMono-Regular,Consolas,Liberation Mono,Menlo,monospace;
        font-kerning: normal;
        text-rendering: optimizeLegibility;
    }
    rect {
        fill: #ECEBE9;
    }
    rect.hold {
        /* class used to indicate key beeing held */
        fill: #F8C8B4;
    }
    text {
        font-size: 1.0em;
        stroke: none;
        fill: #403E3B;
    }

    .tl {
        /* Top-left text */
        text-anchor: start;
        dominant-baseline:hanging;
    }
    .tr {
        /* Top-right text */
        text-anchor: end;
        dominant-baseline:hanging;
    }
    .bl {
        /* Bottom-left text */
        text-anchor: start;
    }   
    .br {
        /* Bottom-right text */
        text-anchor: end;
    }
    .cnt {
        /* Center text */
        text-anchor: middle;
        dominant-baseline:middle;
    }
    .layer {
        /* class for all secondary text labels */
        fill: #9D9A95;
        font-size: 0.7em;
    }    
</style>
<rect rx="4" x="4" y="4" width="60" height="60" class=""/>
<text x="34" y="34" class="cnt">q</text>
<text x="59" y="59" class="layer br">dk</text>
<rect rx="4" x="68" y="4" width="60" height="60" class=""/>
<text x="98" y="34" class="cnt">w</text>
<text x="123" y="59" class="layer br"></text>
<rect rx="4" x="132" y="4" width="60" height="60" class=""/>
<text x="162" y="34" class="cnt">e</text>
<text x="187" y="59" class="layer br"></text>
<rect rx="4" x="196" y="4" width="60" height="60" class=""/>
<text x="226" y="34" class="cnt">r</text>
<text x="251" y="59" class="layer br"></text>
<rect rx="4" x="260" y="4" width="60" height="60" class=""/>
<text x="290" y="34" class="cnt">t</text>
<text x="315" y="59" class="layer br"></text>
<rect rx="4" x="354" y="4" width="60" height="60" class=""/>
<text x="384" y="34" class="cnt">y</text>
<text x="409" y="59" class="layer br"></text>
<rect rx="4" x="418" y="4" width="60" height="60" class=""/>
<text x="448" y="34" class="cnt">u</text>
<text x="473" y="59" class="layer br"></text>
<rect rx="4" x="482" y="4" width="60" height="60" class=""/>
<text x="512" y="34" class="cnt">i</text>
<text x="537" y="59" class="layer br"></text>
<rect rx="4" x="546" y="4" width="60" height="60" class=""/>
<text x="576" y="34" class="cnt">o</text>
<text x="601" y="59" class="layer br"></text>
<rect rx="4" x="610" y="4" width="60" height="60" class=""/>
<text x="640" y="34" class="cnt">p</text>
<text x="665" y="59" class="layer br"></text>


<rect rx="4" x="4" y="68" width="60" height="60" class=""/>
<text x="34" y="98" class="cnt">a</text>
<text x="59" y="123" class="layer br"></text>
<rect rx="4" x="68" y="68" width="60" height="60" class=""/>
<text x="98" y="98" class="cnt">s</text>
<text x="123" y="123" class="layer br"></text>
<rect rx="4" x="132" y="68" width="60" height="60" class=""/>
<text x="162" y="98" class="cnt">d</text>
<text x="187" y="123" class="layer br"></text>
<rect rx="4" x="196" y="68" width="60" height="60" class=""/>
<text x="226" y="98" class="cnt">f</text>
<text x="251" y="123" class="layer br"></text>
<rect rx="4" x="260" y="68" width="60" height="60" class=""/>
<text x="290" y="98" class="cnt">g</text>
<text x="315" y="123" class="layer br"></text>
<rect rx="4" x="354" y="68" width="60" height="60" class=""/>
<text x="384" y="98" class="cnt">h</text>
<text x="409" y="123" class="layer br"></text>
<rect rx="4" x="418" y="68" width="60" height="60" class=""/>
<text x="448" y="98" class="cnt">j</text>
<text x="473" y="123" class="layer br"></text>
<rect rx="4" x="482" y="68" width="60" height="60" class=""/>
<text x="512" y="98" class="cnt">k</text>
<text x="537" y="123" class="layer br"></text>
<rect rx="4" x="546" y="68" width="60" height="60" class=""/>
<text x="576" y="98" class="cnt">l</text>
<text x="601" y="123" class="layer br"></text>
<rect rx="4" x="610" y="68" width="60" height="60" class=""/>
<text x="640" y="98" class="cnt">'</text>
<text x="665" y="123" class="layer br"></text>


<rect rx="4" x="4" y="132" width="60" height="60" class=""/>
<text x="34" y="162" class="cnt">z</text>
<text x="59" y="187" class="layer br">shift</text>
<rect rx="4" x="68" y="132" width="60" height="60" class=""/>
<text x="98" y="162" class="cnt">x</text>
<text x="123" y="187" class="layer br"></text>
<rect rx="4" x="132" y="132" width="60" height="60" class=""/>
<text x="162" y="162" class="cnt">c</text>
<text x="187" y="187" class="layer br"></text>
<rect rx="4" x="196" y="132" width="60" height="60" class=""/>
<text x="226" y="162" class="cnt">v</text>
<text x="251" y="187" class="layer br"></text>
<rect rx="4" x="260" y="132" width="60" height="60" class=""/>
<text x="290" y="162" class="cnt">b</text>
<text x="315" y="187" class="layer br"></text>
<rect rx="4" x="354" y="132" width="60" height="60" class=""/>
<text x="384" y="162" class="cnt">n</text>
<text x="409" y="187" class="layer br"></text>
<rect rx="4" x="418" y="132" width="60" height="60" class=""/>
<text x="448" y="162" class="cnt">m</text>
<text x="473" y="187" class="layer br"></text>
<rect rx="4" x="482" y="132" width="60" height="60" class=""/>
<text x="512" y="162" class="cnt">,</text>
<text x="537" y="187" class="layer br"></text>
<rect rx="4" x="546" y="132" width="60" height="60" class=""/>
<text x="576" y="162" class="cnt">.</text>
<text x="601" y="187" class="layer br"></text>
<rect rx="4" x="610" y="132" width="60" height="60" class=""/>
<text x="640" y="162" class="cnt">enter</text>
<text x="665" y="187" class="layer br">shift</text>


<rect rx="4" x="132" y="196" width="60" height="60" class=""/>
<text x="162" y="226" class="cnt">esc</text>
<text x="187" y="251" class="layer br">opt</text>
<rect rx="4" x="196" y="196" width="60" height="60" class=""/>
<text x="226" y="226" class="cnt">cmd</text>
<text x="251" y="251" class="layer br"></text>
<rect rx="4" x="260" y="196" width="60" height="60" class=""/>
<text x="290" y="226" class="cnt">tab</text>
<text x="315" y="251" class="layer br">ctrl</text>
<rect rx="4" x="354" y="196" width="60" height="60" class=""/>
<text x="384" y="226" class="cnt">space</text>
<text x="409" y="251" class="layer br"></text>
<rect rx="4" x="418" y="196" width="60" height="60" class=""/>
<text x="448" y="226" class="cnt">sym</text>
<text x="473" y="251" class="layer br"></text>
<rect rx="4" x="482" y="196" width="60" height="60" class=""/>
<text x="512" y="226" class="cnt">bksp</text>
<text x="537" y="251" class="layer br">num</text>




<rect rx="4" x="4" y="304" width="60" height="60" class=""/>
<text x="34" y="334" class="cnt">!</text>
<text x="59" y="359" class="layer br"></text>
<rect rx="4" x="68" y="304" width="60" height="60" class=""/>
<text x="98" y="334" class="cnt">@</text>
<text x="123" y="359" class="layer br"></text>
<rect rx="4" x="132" y="304" width="60" height="60" class=""/>
<text x="162" y="334" class="cnt">#</text>
<text x="187" y="359" class="layer br"></text>
<rect rx="4" x="196" y="304" width="60" height="60" class=""/>
<text x="226" y="334" class="cnt">$</text>
<text x="251" y="359" class="layer br"></text>
<rect rx="4" x="260" y="304" width="60" height="60" class=""/>
<text x="290" y="334" class="cnt">%</text>
<text x="315" y="359" class="layer br"></text>
<rect rx="4" x="354" y="304" width="60" height="60" class=""/>
<text x="384" y="334" class="cnt">~</text>
<text x="409" y="359" class="layer br"></text>
<rect rx="4" x="418" y="304" width="60" height="60" class=""/>
<text x="448" y="334" class="cnt">¨</text>
<text x="473" y="359" class="layer br"></text>
<rect rx="4" x="482" y="304" width="60" height="60" class=""/>
<text x="512" y="334" class="cnt">(</text>
<text x="537" y="359" class="layer br"></text>
<rect rx="4" x="546" y="304" width="60" height="60" class=""/>
<text x="576" y="334" class="cnt">)</text>
<text x="601" y="359" class="layer br"></text>
<rect rx="4" x="610" y="304" width="60" height="60" class=""/>
<text x="640" y="334" class="cnt">:</text>
<text x="665" y="359" class="layer br"></text>


<rect rx="4" x="4" y="368" width="60" height="60" class=""/>
<text x="34" y="398" class="cnt">^</text>
<text x="59" y="423" class="layer br"></text>
<rect rx="4" x="68" y="368" width="60" height="60" class=""/>
<text x="98" y="398" class="cnt">&amp;</text>
<text x="123" y="423" class="layer br"></text>
<rect rx="4" x="132" y="368" width="60" height="60" class=""/>
<text x="162" y="398" class="cnt">_</text>
<text x="187" y="423" class="layer br"></text>
<rect rx="4" x="196" y="368" width="60" height="60" class=""/>
<text x="226" y="398" class="cnt">\</text>
<text x="251" y="423" class="layer br"></text>
<rect rx="4" x="260" y="368" width="60" height="60" class=""/>
<text x="290" y="398" class="cnt">|</text>
<text x="315" y="423" class="layer br"></text>
<rect rx="4" x="354" y="368" width="60" height="60" class=""/>
<text x="384" y="398" class="cnt"></text>
<text x="409" y="423" class="layer br"></text>
<rect rx="4" x="418" y="368" width="60" height="60" class=""/>
<text x="448" y="398" class="cnt">?</text>
<text x="473" y="423" class="layer br"></text>
<rect rx="4" x="482" y="368" width="60" height="60" class=""/>
<text x="512" y="398" class="cnt">{</text>
<text x="537" y="423" class="layer br"></text>
<rect rx="4" x="546" y="368" width="60" height="60" class=""/>
<text x="576" y="398" class="cnt">}</text>
<text x="601" y="423" class="layer br"></text>
<rect rx="4" x="610" y="368" width="60" height="60" class=""/>
<text x="640" y="398" class="cnt">;</text>
<text x="665" y="423" class="layer br"></text>


<rect rx="4" x="4" y="432" width="60" height="60" class=""/>
<text x="34" y="462" class="cnt">+</text>
<text x="59" y="487" class="layer br">shift</text>
<rect rx="4" x="68" y="432" width="60" height="60" class=""/>
<text x="98" y="462" class="cnt">-</text>
<text x="123" y="487" class="layer br"></text>
<rect rx="4" x="132" y="432" width="60" height="60" class=""/>
<text x="162" y="462" class="cnt">*</text>
<text x="187" y="487" class="layer br"></text>
<rect rx="4" x="196" y="432" width="60" height="60" class=""/>
<text x="226" y="462" class="cnt">/</text>
<text x="251" y="487" class="layer br"></text>
<rect rx="4" x="260" y="432" width="60" height="60" class=""/>
<text x="290" y="462" class="cnt">=</text>
<text x="315" y="487" class="layer br"></text>
<rect rx="4" x="354" y="432" width="60" height="60" class=""/>
<text x="384" y="462" class="cnt">`</text>
<text x="409" y="487" class="layer br"></text>
<rect rx="4" x="418" y="432" width="60" height="60" class=""/>
<text x="448" y="462" class="cnt">´</text>
<text x="473" y="487" class="layer br"></text>
<rect rx="4" x="482" y="432" width="60" height="60" class=""/>
<text x="512" y="462" class="cnt">[</text>
<text x="537" y="487" class="layer br"></text>
<rect rx="4" x="546" y="432" width="60" height="60" class=""/>
<text x="576" y="462" class="cnt">]</text>
<text x="601" y="487" class="layer br"></text>
<rect rx="4" x="610" y="432" width="60" height="60" class=""/>
<text x="640" y="462" class="cnt">enter</text>
<text x="665" y="487" class="layer br">shift</text>


<rect rx="4" x="132" y="496" width="60" height="60" class=""/>
<text x="162" y="526" class="cnt">esc</text>
<text x="187" y="551" class="layer br">opt</text>
<rect rx="4" x="196" y="496" width="60" height="60" class=""/>
<text x="226" y="526" class="cnt">cmd</text>
<text x="251" y="551" class="layer br"></text>
<rect rx="4" x="260" y="496" width="60" height="60" class=""/>
<text x="290" y="526" class="cnt">tab</text>
<text x="315" y="551" class="layer br">ctrl</text>
<rect rx="4" x="354" y="496" width="60" height="60" class=""/>
<text x="384" y="526" class="cnt">space</text>
<text x="409" y="551" class="layer br"></text>
<rect rx="4" x="418" y="496" width="60" height="60" class="hold"/>
<text x="448" y="526" class="cnt">sym</text>
<text x="473" y="551" class="layer br"></text>
<rect rx="4" x="482" y="496" width="60" height="60" class=""/>
<text x="512" y="526" class="cnt">bksp</text>
<text x="537" y="551" class="layer br">num</text>




<rect rx="4" x="4" y="604" width="60" height="60" class=""/>
<text x="34" y="634" class="cnt">1</text>
<text x="59" y="659" class="layer br"></text>
<rect rx="4" x="68" y="604" width="60" height="60" class=""/>
<text x="98" y="634" class="cnt">2</text>
<text x="123" y="659" class="layer br"></text>
<rect rx="4" x="132" y="604" width="60" height="60" class=""/>
<text x="162" y="634" class="cnt">3</text>
<text x="187" y="659" class="layer br"></text>
<rect rx="4" x="196" y="604" width="60" height="60" class=""/>
<text x="226" y="634" class="cnt">4</text>
<text x="251" y="659" class="layer br"></text>
<rect rx="4" x="260" y="604" width="60" height="60" class=""/>
<text x="290" y="634" class="cnt">5</text>
<text x="315" y="659" class="layer br"></text>
<rect rx="4" x="354" y="604" width="60" height="60" class=""/>
<text x="384" y="634" class="cnt">pgup</text>
<text x="409" y="659" class="layer br"></text>
<rect rx="4" x="418" y="604" width="60" height="60" class=""/>
<text x="448" y="634" class="cnt">home</text>
<text x="473" y="659" class="layer br"></text>
<rect rx="4" x="482" y="604" width="60" height="60" class=""/>
<text x="512" y="634" class="cnt">up</text>
<text x="537" y="659" class="layer br"></text>
<rect rx="4" x="546" y="604" width="60" height="60" class=""/>
<text x="576" y="634" class="cnt">end</text>
<text x="601" y="659" class="layer br"></text>
<rect rx="4" x="610" y="604" width="60" height="60" class=""/>
<text x="640" y="634" class="cnt">del</text>
<text x="665" y="659" class="layer br"></text>


<rect rx="4" x="4" y="668" width="60" height="60" class=""/>
<text x="34" y="698" class="cnt">6</text>
<text x="59" y="723" class="layer br"></text>
<rect rx="4" x="68" y="668" width="60" height="60" class=""/>
<text x="98" y="698" class="cnt">7</text>
<text x="123" y="723" class="layer br"></text>
<rect rx="4" x="132" y="668" width="60" height="60" class=""/>
<text x="162" y="698" class="cnt">8</text>
<text x="187" y="723" class="layer br"></text>
<rect rx="4" x="196" y="668" width="60" height="60" class=""/>
<text x="226" y="698" class="cnt">9</text>
<text x="251" y="723" class="layer br"></text>
<rect rx="4" x="260" y="668" width="60" height="60" class=""/>
<text x="290" y="698" class="cnt">0</text>
<text x="315" y="723" class="layer br"></text>
<rect rx="4" x="354" y="668" width="60" height="60" class=""/>
<text x="384" y="698" class="cnt">pgdn</text>
<text x="409" y="723" class="layer br"></text>
<rect rx="4" x="418" y="668" width="60" height="60" class=""/>
<text x="448" y="698" class="cnt">left</text>
<text x="473" y="723" class="layer br"></text>
<rect rx="4" x="482" y="668" width="60" height="60" class=""/>
<text x="512" y="698" class="cnt">down</text>
<text x="537" y="723" class="layer br"></text>
<rect rx="4" x="546" y="668" width="60" height="60" class=""/>
<text x="576" y="698" class="cnt">right</text>
<text x="601" y="723" class="layer br"></text>
<rect rx="4" x="610" y="668" width="60" height="60" class=""/>
<text x="640" y="698" class="cnt"></text>
<text x="665" y="723" class="layer br"></text>


<rect rx="4" x="4" y="732" width="60" height="60" class=""/>
<text x="34" y="762" class="cnt">+</text>
<text x="59" y="787" class="layer br">shift</text>
<rect rx="4" x="68" y="732" width="60" height="60" class=""/>
<text x="98" y="762" class="cnt">-</text>
<text x="123" y="787" class="layer br"></text>
<rect rx="4" x="132" y="732" width="60" height="60" class=""/>
<text x="162" y="762" class="cnt">*</text>
<text x="187" y="787" class="layer br"></text>
<rect rx="4" x="196" y="732" width="60" height="60" class=""/>
<text x="226" y="762" class="cnt">/</text>
<text x="251" y="787" class="layer br"></text>
<rect rx="4" x="260" y="732" width="60" height="60" class=""/>
<text x="290" y="762" class="cnt">=</text>
<text x="315" y="787" class="layer br"></text>
<rect rx="4" x="354" y="732" width="60" height="60" class=""/>
<text x="384" y="762" class="cnt"></text>
<text x="409" y="787" class="layer br"></text>
<rect rx="4" x="418" y="732" width="60" height="60" class=""/>
<text x="448" y="762" class="cnt"></text>
<text x="473" y="787" class="layer br"></text>
<rect rx="4" x="482" y="732" width="60" height="60" class=""/>
<text x="512" y="762" class="cnt">,</text>
<text x="537" y="787" class="layer br"></text>
<rect rx="4" x="546" y="732" width="60" height="60" class=""/>
<text x="576" y="762" class="cnt">.</text>
<text x="601" y="787" class="layer br"></text>
<rect rx="4" x="610" y="732" width="60" height="60" class=""/>
<text x="640" y="762" class="cnt">enter</text>
<text x="665" y="787" class="layer br">shift</text>


<rect rx="4" x="132" y="796" width="60" height="60" class=""/>
<text x="162" y="826" class="cnt">esc</text>
<text x="187" y="851" class="layer br">opt</text>
<rect rx="4" x="196" y="796" width="60" height="60" class=""/>
<text x="226" y="826" class="cnt">cmd</text>
<text x="251" y="851" class="layer br"></text>
<rect rx="4" x="260" y="796" width="60" height="60" class=""/>
<text x="290" y="826" class="cnt">tab</text>
<text x="315" y="851" class="layer br">ctrl</text>
<rect rx="4" x="354" y="796" width="60" height="60" class=""/>
<text x="384" y="826" class="cnt">space</text>
<text x="409" y="851" class="layer br"></text>
<rect rx="4" x="418" y="796" width="60" height="60" class=""/>
<text x="448" y="826" class="cnt">sym</text>
<text x="473" y="851" class="layer br"></text>
<rect rx="4" x="482" y="796" width="60" height="60" class="hold"/>
<text x="512" y="826" class="cnt">bksp</text>
<text x="537" y="851" class="layer br">num</text>




<rect rx="4" x="4" y="904" width="60" height="60" class=""/>
<text x="34" y="934" class="cnt">f1</text>
<text x="59" y="959" class="layer br"></text>
<rect rx="4" x="68" y="904" width="60" height="60" class=""/>
<text x="98" y="934" class="cnt">f2</text>
<text x="123" y="959" class="layer br"></text>
<rect rx="4" x="132" y="904" width="60" height="60" class=""/>
<text x="162" y="934" class="cnt">f3</text>
<text x="187" y="959" class="layer br"></text>
<rect rx="4" x="196" y="904" width="60" height="60" class=""/>
<text x="226" y="934" class="cnt">f4</text>
<text x="251" y="959" class="layer br"></text>
<rect rx="4" x="260" y="904" width="60" height="60" class=""/>
<text x="290" y="934" class="cnt">f5</text>
<text x="315" y="959" class="layer br"></text>
<rect rx="4" x="354" y="904" width="60" height="60" class=""/>
<text x="384" y="934" class="cnt">reset</text>
<text x="409" y="959" class="layer br"></text>
<rect rx="4" x="418" y="904" width="60" height="60" class=""/>
<text x="448" y="934" class="cnt">volup</text>
<text x="473" y="959" class="layer br"></text>
<rect rx="4" x="482" y="904" width="60" height="60" class=""/>
<text x="512" y="934" class="cnt">ins</text>
<text x="537" y="959" class="layer br"></text>
<rect rx="4" x="546" y="904" width="60" height="60" class=""/>
<text x="576" y="934" class="cnt"></text>
<text x="601" y="959" class="layer br"></text>
<rect rx="4" x="610" y="904" width="60" height="60" class=""/>
<text x="640" y="934" class="cnt">prtsc</text>
<text x="665" y="959" class="layer br"></text>


<rect rx="4" x="4" y="968" width="60" height="60" class=""/>
<text x="34" y="998" class="cnt">f6</text>
<text x="59" y="1023" class="layer br"></text>
<rect rx="4" x="68" y="968" width="60" height="60" class=""/>
<text x="98" y="998" class="cnt">f7</text>
<text x="123" y="1023" class="layer br"></text>
<rect rx="4" x="132" y="968" width="60" height="60" class=""/>
<text x="162" y="998" class="cnt">f8</text>
<text x="187" y="1023" class="layer br"></text>
<rect rx="4" x="196" y="968" width="60" height="60" class=""/>
<text x="226" y="998" class="cnt">f9</text>
<text x="251" y="1023" class="layer br"></text>
<rect rx="4" x="260" y="968" width="60" height="60" class=""/>
<text x="290" y="998" class="cnt">f10</text>
<text x="315" y="1023" class="layer br"></text>
<rect rx="4" x="354" y="968" width="60" height="60" class=""/>
<text x="384" y="998" class="cnt"></text>
<text x="409" y="1023" class="layer br"></text>
<rect rx="4" x="418" y="968" width="60" height="60" class=""/>
<text x="448" y="998" class="cnt">voldn</text>
<text x="473" y="1023" class="layer br"></text>
<rect rx="4" x="482" y="968" width="60" height="60" class=""/>
<text x="512" y="998" class="cnt"></text>
<text x="537" y="1023" class="layer br"></text>
<rect rx="4" x="546" y="968" width="60" height="60" class=""/>
<text x="576" y="998" class="cnt"></text>
<text x="601" y="1023" class="layer br"></text>
<rect rx="4" x="610" y="968" width="60" height="60" class=""/>
<text x="640" y="998" class="cnt"></text>
<text x="665" y="1023" class="layer br"></text>


<rect rx="4" x="4" y="1032" width="60" height="60" class=""/>
<text x="34" y="1062" class="cnt">f11</text>
<text x="59" y="1087" class="layer br">shift</text>
<rect rx="4" x="68" y="1032" width="60" height="60" class=""/>
<text x="98" y="1062" class="cnt">f12</text>
<text x="123" y="1087" class="layer br"></text>
<rect rx="4" x="132" y="1032" width="60" height="60" class=""/>
<text x="162" y="1062" class="cnt"></text>
<text x="187" y="1087" class="layer br"></text>
<rect rx="4" x="196" y="1032" width="60" height="60" class=""/>
<text x="226" y="1062" class="cnt"></text>
<text x="251" y="1087" class="layer br"></text>
<rect rx="4" x="260" y="1032" width="60" height="60" class=""/>
<text x="290" y="1062" class="cnt"></text>
<text x="315" y="1087" class="layer br"></text>
<rect rx="4" x="354" y="1032" width="60" height="60" class=""/>
<text x="384" y="1062" class="cnt">mac</text>
<text x="409" y="1087" class="layer br"></text>
<rect rx="4" x="418" y="1032" width="60" height="60" class=""/>
<text x="448" y="1062" class="cnt"></text>
<text x="473" y="1087" class="layer br"></text>
<rect rx="4" x="482" y="1032" width="60" height="60" class=""/>
<text x="512" y="1062" class="cnt"></text>
<text x="537" y="1087" class="layer br"></text>
<rect rx="4" x="546" y="1032" width="60" height="60" class=""/>
<text x="576" y="1062" class="cnt"></text>
<text x="601" y="1087" class="layer br"></text>
<rect rx="4" x="610" y="1032" width="60" height="60" class=""/>
<text x="640" y="1062" class="cnt">enter</text>
<text x="665" y="1087" class="layer br">shift</text>


<rect rx="4" x="132" y="1096" width="60" height="60" class=""/>
<text x="162" y="1126" class="cnt">esc</text>
<text x="187" y="1151" class="layer br">opt</text>
<rect rx="4" x="196" y="1096" width="60" height="60" class=""/>
<text x="226" y="1126" class="cnt">cmd</text>
<text x="251" y="1151" class="layer br"></text>
<rect rx="4" x="260" y="1096" width="60" height="60" class=""/>
<text x="290" y="1126" class="cnt">tab</text>
<text x="315" y="1151" class="layer br">ctrl</text>
<rect rx="4" x="354" y="1096" width="60" height="60" class=""/>
<text x="384" y="1126" class="cnt">space</text>
<text x="409" y="1151" class="layer br"></text>
<rect rx="4" x="418" y="1096" width="60" height="60" class="hold"/>
<text x="448" y="1126" class="cnt">sym</text>
<text x="473" y="1151" class="layer br"></text>
<rect rx="4" x="482" y="1096" width="60" height="60" class="hold"/>
<text x="512" y="1126" class="cnt">bksp</text>
<text x="537" y="1151" class="layer br">num</text>




<rect rx="4" x="4" y="1204" width="60" height="60" class="hold"/>
<text x="34" y="1234" class="cnt">q</text>
<text x="59" y="1259" class="layer br">dk</text>
<rect rx="4" x="68" y="1204" width="60" height="60" class=""/>
<text x="98" y="1234" class="cnt"></text>
<text x="123" y="1259" class="layer br"></text>
<rect rx="4" x="132" y="1204" width="60" height="60" class=""/>
<text x="162" y="1234" class="cnt"></text>
<text x="187" y="1259" class="layer br"></text>
<rect rx="4" x="196" y="1204" width="60" height="60" class=""/>
<text x="226" y="1234" class="cnt"></text>
<text x="251" y="1259" class="layer br"></text>
<rect rx="4" x="260" y="1204" width="60" height="60" class=""/>
<text x="290" y="1234" class="cnt"></text>
<text x="315" y="1259" class="layer br"></text>
<rect rx="4" x="354" y="1204" width="60" height="60" class=""/>
<text x="384" y="1234" class="cnt"></text>
<text x="409" y="1259" class="layer br"></text>
<rect rx="4" x="418" y="1204" width="60" height="60" class=""/>
<text x="448" y="1234" class="cnt"></text>
<text x="473" y="1259" class="layer br"></text>
<rect rx="4" x="482" y="1204" width="60" height="60" class=""/>
<text x="512" y="1234" class="cnt"></text>
<text x="537" y="1259" class="layer br"></text>
<rect rx="4" x="546" y="1204" width="60" height="60" class=""/>
<text x="576" y="1234" class="cnt"></text>
<text x="601" y="1259" class="layer br"></text>
<rect rx="4" x="610" y="1204" width="60" height="60" class=""/>
<text x="640" y="1234" class="cnt"></text>
<text x="665" y="1259" class="layer br"></text>


<rect rx="4" x="4" y="1268" width="60" height="60" class=""/>
<text x="34" y="1298" class="cnt"></text>
<text x="59" y="1323" class="layer br"></text>
<rect rx="4" x="68" y="1268" width="60" height="60" class=""/>
<text x="98" y="1298" class="cnt"></text>
<text x="123" y="1323" class="layer br"></text>
<rect rx="4" x="132" y="1268" width="60" height="60" class=""/>
<text x="162" y="1298" class="cnt"></text>
<text x="187" y="1323" class="layer br"></text>
<rect rx="4" x="196" y="1268" width="60" height="60" class=""/>
<text x="226" y="1298" class="cnt"></text>
<text x="251" y="1323" class="layer br"></text>
<rect rx="4" x="260" y="1268" width="60" height="60" class=""/>
<text x="290" y="1298" class="cnt"></text>
<text x="315" y="1323" class="layer br"></text>
<rect rx="4" x="354" y="1268" width="60" height="60" class=""/>
<text x="384" y="1298" class="cnt"></text>
<text x="409" y="1323" class="layer br"></text>
<rect rx="4" x="418" y="1268" width="60" height="60" class=""/>
<text x="448" y="1298" class="cnt"></text>
<text x="473" y="1323" class="layer br"></text>
<rect rx="4" x="482" y="1268" width="60" height="60" class=""/>
<text x="512" y="1298" class="cnt"></text>
<text x="537" y="1323" class="layer br"></text>
<rect rx="4" x="546" y="1268" width="60" height="60" class=""/>
<text x="576" y="1298" class="cnt"></text>
<text x="601" y="1323" class="layer br"></text>
<rect rx="4" x="610" y="1268" width="60" height="60" class=""/>
<text x="640" y="1298" class="cnt"></text>
<text x="665" y="1323" class="layer br"></text>


<rect rx="4" x="4" y="1332" width="60" height="60" class=""/>
<text x="34" y="1362" class="cnt">shift</text>
<text x="59" y="1387" class="layer br"></text>
<rect rx="4" x="68" y="1332" width="60" height="60" class=""/>
<text x="98" y="1362" class="cnt"></text>
<text x="123" y="1387" class="layer br"></text>
<rect rx="4" x="132" y="1332" width="60" height="60" class=""/>
<text x="162" y="1362" class="cnt"></text>
<text x="187" y="1387" class="layer br"></text>
<rect rx="4" x="196" y="1332" width="60" height="60" class=""/>
<text x="226" y="1362" class="cnt"></text>
<text x="251" y="1387" class="layer br"></text>
<rect rx="4" x="260" y="1332" width="60" height="60" class=""/>
<text x="290" y="1362" class="cnt"></text>
<text x="315" y="1387" class="layer br"></text>
<rect rx="4" x="354" y="1332" width="60" height="60" class=""/>
<text x="384" y="1362" class="cnt"></text>
<text x="409" y="1387" class="layer br"></text>
<rect rx="4" x="418" y="1332" width="60" height="60" class=""/>
<text x="448" y="1362" class="cnt"></text>
<text x="473" y="1387" class="layer br"></text>
<rect rx="4" x="482" y="1332" width="60" height="60" class=""/>
<text x="512" y="1362" class="cnt">æ</text>
<text x="537" y="1387" class="layer br"></text>
<rect rx="4" x="546" y="1332" width="60" height="60" class=""/>
<text x="576" y="1362" class="cnt">ø</text>
<text x="601" y="1387" class="layer br"></text>
<rect rx="4" x="610" y="1332" width="60" height="60" class=""/>
<text x="640" y="1362" class="cnt">å</text>
<text x="665" y="1387" class="layer br"></text>


<rect rx="4" x="132" y="1396" width="60" height="60" class=""/>
<text x="162" y="1426" class="cnt">esc</text>
<text x="187" y="1451" class="layer br">opt</text>
<rect rx="4" x="196" y="1396" width="60" height="60" class=""/>
<text x="226" y="1426" class="cnt">cmd</text>
<text x="251" y="1451" class="layer br"></text>
<rect rx="4" x="260" y="1396" width="60" height="60" class=""/>
<text x="290" y="1426" class="cnt">tab</text>
<text x="315" y="1451" class="layer br">ctrl</text>
<rect rx="4" x="354" y="1396" width="60" height="60" class=""/>
<text x="384" y="1426" class="cnt">space</text>
<text x="409" y="1451" class="layer br"></text>
<rect rx="4" x="418" y="1396" width="60" height="60" class=""/>
<text x="448" y="1426" class="cnt">sym</text>
<text x="473" y="1451" class="layer br"></text>
<rect rx="4" x="482" y="1396" width="60" height="60" class=""/>
<text x="512" y="1426" class="cnt">bksp</text>
<text x="537" y="1451" class="layer br">num</text>
</svg>
