<?xml version="1.0" encoding="UTF-8" standalone="no"?>
<!DOCTYPE svg PUBLIC "-//W3C//DTD SVG 1.1//EN" "http://www.w3.org/Graphics/SVG/1.1/DTD/svg11.dtd">
<svg xmlns="http://www.w3.org/2000/svg" viewBox="0 0 463 390">
<style>
    svg {
        font-family: SFMono-Regular,Consolas,Liberation Mono,Menlo,monospace;
        font-kerning: normal;
        text-rendering: optimizeLegibility;
    }
    rect {
        fill: rgb(246, 248, 250);
    }
    rect.hold {
        fill: rgb(255, 205, 178);
    }
    text {
        font-size: 0.75em;
        stroke: none;
        fill: rgb(50,50,50);
    }
    .tl {
        text-anchor: start;
        dominant-baseline:hanging;
    }
    .tr {
        text-anchor: end;
        dominant-baseline:hanging;
    }
    .bl {
        text-anchor: start;
    }
    .br {
        text-anchor: end;
    }
    .cnt {
        text-anchor: middle;
        dominant-baseline:middle;
    }
    .layer {
        fill: rgb(190, 190, 190);
        font-size: 0.5em;
    }    
</style>
<rect rx="4" x="3" y="3" width="40" height="40" class=""/>
<text x="23" y="23" class="cnt">a</text>
<rect rx="4" x="46" y="3" width="40" height="40" class=""/>
<text x="66" y="23" class="cnt">f</text>
<rect rx="4" x="89" y="3" width="40" height="40" class=""/>
<text x="109" y="23" class="cnt">k</text>
<rect rx="4" x="132" y="3" width="40" height="40" class=""/>
<text x="152" y="23" class="cnt">r</text>
<rect rx="4" x="175" y="3" width="40" height="40" class=""/>
<text x="195" y="23" class="cnt">j</text>
<rect rx="4" x="248" y="3" width="40" height="40" class=""/>
<text x="268" y="23" class="cnt">b</text>
<rect rx="4" x="291" y="3" width="40" height="40" class=""/>
<text x="311" y="23" class="cnt">w</text>
<rect rx="4" x="334" y="3" width="40" height="40" class=""/>
<text x="354" y="23" class="cnt">m</text>
<rect rx="4" x="377" y="3" width="40" height="40" class=""/>
<text x="397" y="23" class="cnt">x</text>
<rect rx="4" x="420" y="3" width="40" height="40" class=""/>
<text x="440" y="23" class="cnt">t</text>



<rect rx="4" x="3" y="46" width="40" height="40" class=""/>
<text x="23" y="66" class="cnt">t</text>
<rect rx="4" x="46" y="46" width="40" height="40" class=""/>
<text x="66" y="66" class="cnt">u</text>
<rect rx="4" x="89" y="46" width="40" height="40" class=""/>
<text x="109" y="66" class="cnt">d</text>
<rect rx="4" x="132" y="46" width="40" height="40" class=""/>
<text x="152" y="66" class="cnt">j</text>
<rect rx="4" x="175" y="46" width="40" height="40" class=""/>
<text x="195" y="66" class="cnt">f</text>
<rect rx="4" x="248" y="46" width="40" height="40" class=""/>
<text x="268" y="66" class="cnt">f</text>
<rect rx="4" x="291" y="46" width="40" height="40" class=""/>
<text x="311" y="66" class="cnt">o</text>
<rect rx="4" x="334" y="46" width="40" height="40" class=""/>
<text x="354" y="66" class="cnt">e</text>
<rect rx="4" x="377" y="46" width="40" height="40" class=""/>
<text x="397" y="66" class="cnt">k</text>
<rect rx="4" x="420" y="46" width="40" height="40" class=""/>
<text x="440" y="66" class="cnt">h</text>



<rect rx="4" x="3" y="89" width="40" height="40" class=""/>
<text x="23" y="109" class="cnt">n</text>
<rect rx="4" x="46" y="89" width="40" height="40" class=""/>
<text x="66" y="109" class="cnt">y</text>
<rect rx="4" x="89" y="89" width="40" height="40" class=""/>
<text x="109" y="109" class="cnt">d</text>
<rect rx="4" x="132" y="89" width="40" height="40" class=""/>
<text x="152" y="109" class="cnt">g</text>
<rect rx="4" x="175" y="89" width="40" height="40" class=""/>
<text x="195" y="109" class="cnt">p</text>
<rect rx="4" x="248" y="89" width="40" height="40" class=""/>
<text x="268" y="109" class="cnt">s</text>
<rect rx="4" x="291" y="89" width="40" height="40" class=""/>
<text x="311" y="109" class="cnt">p</text>
<rect rx="4" x="334" y="89" width="40" height="40" class=""/>
<text x="354" y="109" class="cnt">u</text>
<rect rx="4" x="377" y="89" width="40" height="40" class=""/>
<text x="397" y="109" class="cnt">x</text>
<rect rx="4" x="420" y="89" width="40" height="40" class=""/>
<text x="440" y="109" class="cnt">l</text>



<rect rx="4" x="89" y="132" width="40" height="40" class=""/>
<text x="109" y="152" class="cnt">e</text>
<rect rx="4" x="132" y="132" width="40" height="40" class=""/>
<text x="152" y="152" class="cnt">e</text>
<rect rx="4" x="175" y="132" width="40" height="40" class=""/>
<text x="195" y="152" class="cnt">c</text>
<rect rx="4" x="248" y="132" width="40" height="40" class=""/>
<text x="268" y="152" class="cnt">z</text>
<rect rx="4" x="291" y="132" width="40" height="40" class=""/>
<text x="311" y="152" class="cnt">b</text>
<rect rx="4" x="334" y="132" width="40" height="40" class=""/>
<text x="354" y="152" class="cnt">d</text>
<rect rx="4" x="3" y="218" width="40" height="40" class=""/>
<text x="23" y="238" class="cnt">y</text>
<rect rx="4" x="46" y="218" width="40" height="40" class=""/>
<text x="66" y="238" class="cnt">g</text>
<rect rx="4" x="89" y="218" width="40" height="40" class=""/>
<text x="109" y="238" class="cnt">f</text>
<rect rx="4" x="132" y="218" width="40" height="40" class=""/>
<text x="152" y="238" class="cnt">t</text>
<rect rx="4" x="175" y="218" width="40" height="40" class=""/>
<text x="195" y="238" class="cnt">d</text>
<rect rx="4" x="248" y="218" width="40" height="40" class=""/>
<text x="268" y="238" class="cnt">z</text>
<rect rx="4" x="291" y="218" width="40" height="40" class=""/>
<text x="311" y="238" class="cnt">t</text>
<rect rx="4" x="334" y="218" width="40" height="40" class=""/>
<text x="354" y="238" class="cnt">u</text>
<rect rx="4" x="377" y="218" width="40" height="40" class=""/>
<text x="397" y="238" class="cnt">a</text>
<rect rx="4" x="420" y="218" width="40" height="40" class=""/>
<text x="440" y="238" class="cnt">w</text>



<rect rx="4" x="3" y="261" width="40" height="40" class=""/>
<text x="23" y="281" class="cnt">o</text>
<rect rx="4" x="46" y="261" width="40" height="40" class=""/>
<text x="66" y="281" class="cnt">s</text>
<rect rx="4" x="89" y="261" width="40" height="40" class=""/>
<text x="109" y="281" class="cnt">o</text>
<rect rx="4" x="132" y="261" width="40" height="40" class=""/>
<text x="152" y="281" class="cnt">v</text>
<rect rx="4" x="175" y="261" width="40" height="40" class=""/>
<text x="195" y="281" class="cnt">r</text>
<rect rx="4" x="248" y="261" width="40" height="40" class=""/>
<text x="268" y="281" class="cnt">c</text>
<rect rx="4" x="291" y="261" width="40" height="40" class=""/>
<text x="311" y="281" class="cnt">j</text>
<rect rx="4" x="334" y="261" width="40" height="40" class=""/>
<text x="354" y="281" class="cnt">r</text>
<rect rx="4" x="377" y="261" width="40" height="40" class=""/>
<text x="397" y="281" class="cnt">l</text>
<rect rx="4" x="420" y="261" width="40" height="40" class=""/>
<text x="440" y="281" class="cnt">w</text>



<rect rx="4" x="3" y="304" width="40" height="40" class=""/>
<text x="23" y="324" class="cnt">w</text>
<rect rx="4" x="46" y="304" width="40" height="40" class=""/>
<text x="66" y="324" class="cnt">p</text>
<rect rx="4" x="89" y="304" width="40" height="40" class=""/>
<text x="109" y="324" class="cnt">q</text>
<rect rx="4" x="132" y="304" width="40" height="40" class=""/>
<text x="152" y="324" class="cnt">k</text>
<rect rx="4" x="175" y="304" width="40" height="40" class=""/>
<text x="195" y="324" class="cnt">y</text>
<rect rx="4" x="248" y="304" width="40" height="40" class=""/>
<text x="268" y="324" class="cnt">o</text>
<rect rx="4" x="291" y="304" width="40" height="40" class=""/>
<text x="311" y="324" class="cnt">c</text>
<rect rx="4" x="334" y="304" width="40" height="40" class=""/>
<text x="354" y="324" class="cnt">p</text>
<rect rx="4" x="377" y="304" width="40" height="40" class=""/>
<text x="397" y="324" class="cnt">u</text>
<rect rx="4" x="420" y="304" width="40" height="40" class=""/>
<text x="440" y="324" class="cnt">w</text>



<rect rx="4" x="89" y="347" width="40" height="40" class=""/>
<text x="109" y="367" class="cnt">o</text>
<rect rx="4" x="132" y="347" width="40" height="40" class=""/>
<text x="152" y="367" class="cnt">q</text>
<rect rx="4" x="175" y="347" width="40" height="40" class=""/>
<text x="195" y="367" class="cnt">e</text>
<rect rx="4" x="248" y="347" width="40" height="40" class=""/>
<text x="268" y="367" class="cnt">r</text>
<rect rx="4" x="291" y="347" width="40" height="40" class=""/>
<text x="311" y="367" class="cnt">o</text>
<rect rx="4" x="334" y="347" width="40" height="40" class="hold"/>
<text x="354" y="367" class="cnt">x</text>
</svg>
